# xmcd
# 
# Track frame offsets:
#     150
#     17454
#     44161
#     51290
#     76893
#     95137
#     120173
#     151800
#     180628
#     191612
#     223356
#     239651
# 
# Disc length: 3525
# 
# Revision: 5
# Processed by: cddbd v1.5.2PL0 Copyright (c) Steve Scherf et al.
# Submitted via: fre:ac v1.0.27
# 
DISCID=a30dc30c
DTITLE=Christian Scott - Christian aTunde Adjuah [CD2]
DYEAR=2012
DGENRE=Concord Jazz
TTITLE0=The Berlin Patient (CCR5)
TTITLE1=Jihad Joe
TTITLE2=Van Gogh (Interlude)
TTITLE3=Liar Liar
TTITLE4=I Do
TTITLE5=Alkebu Lan
TTITLE6=Bartlett
TTITLE7=When Marissa Stands Her Ground
TTITLE8=Cumulonimbus (Interlude)
TTITLE9=Away (Anaradha and The Maiti Nepal)
TTITLE10=The Red Rooster
TTITLE11=Cara
EXTD=YEAR: 2012
EXTT0=
EXTT1=
EXTT2=
EXTT3=
EXTT4=
EXTT5=
EXTT6=
EXTT7=
EXTT8=
EXTT9=
EXTT10=
EXTT11=
PLAYORDER=
